<svg width="14" height="14" viewBox="0 0 14 14" fill="none" xmlns="http://www.w3.org/2000/svg">
<path d="M10.8333 10.75C11.2091 10.75 11.5694 10.8993 11.8351 11.1649C12.1008 11.4306 12.25 11.7909 12.25 12.1667C12.25 12.5424 12.1008 12.9027 11.8351 13.1684C11.5694 13.4341 11.2091 13.5833 10.8333 13.5833C10.4576 13.5833 10.0973 13.4341 9.83161 13.1684C9.56593 12.9027 9.41668 12.5424 9.41668 12.1667C9.41668 11.7909 9.56593 11.4306 9.83161 11.1649C10.0973 10.8993 10.4576 10.75 10.8333 10.75ZM10.8333 11.4583C10.6455 11.4583 10.4653 11.533 10.3325 11.6658C10.1996 11.7986 10.125 11.9788 10.125 12.1667C10.125 12.3545 10.1996 12.5347 10.3325 12.6675C10.4653 12.8004 10.6455 12.875 10.8333 12.875C11.0212 12.875 11.2014 12.8004 11.3342 12.6675C11.467 12.5347 11.5417 12.3545 11.5417 12.1667C11.5417 11.9788 11.467 11.7986 11.3342 11.6658C11.2014 11.533 11.0212 11.4583 10.8333 11.4583ZM4.45834 10.75C4.83407 10.75 5.1944 10.8993 5.46008 11.1649C5.72575 11.4306 5.87501 11.7909 5.87501 12.1667C5.87501 12.5424 5.72575 12.9027 5.46008 13.1684C5.1944 13.4341 4.83407 13.5833 4.45834 13.5833C4.08262 13.5833 3.72229 13.4341 3.45661 13.1684C3.19093 12.9027 3.04168 12.5424 3.04168 12.1667C3.04168 11.7909 3.19093 11.4306 3.45661 11.1649C3.72229 10.8993 4.08262 10.75 4.45834 10.75ZM4.45834 11.4583C4.27048 11.4583 4.09031 11.533 3.95748 11.6658C3.82464 11.7986 3.75001 11.9788 3.75001 12.1667C3.75001 12.3545 3.82464 12.5347 3.95748 12.6675C4.09031 12.8004 4.27048 12.875 4.45834 12.875C4.64621 12.875 4.82637 12.8004 4.95921 12.6675C5.09205 12.5347 5.16668 12.3545 5.16668 12.1667C5.16668 11.9788 5.09205 11.7986 4.95921 11.6658C4.82637 11.533 4.64621 11.4583 4.45834 11.4583ZM12.25 2.25H2.52459L4.33084 6.5H10.125C10.3588 6.5 10.5642 6.38667 10.6917 6.21667L12.8167 3.38333C12.9088 3.26292 12.9583 3.11417 12.9583 2.95833C12.9583 2.77047 12.8837 2.5903 12.7509 2.45747C12.618 2.32463 12.4379 2.25 12.25 2.25ZM10.125 7.20833H4.36626L3.82084 8.31333L3.75001 8.625C3.75001 8.81286 3.82464 8.99303 3.95748 9.12587C4.09031 9.25871 4.27048 9.33333 4.45834 9.33333H12.25V10.0417H4.45834C4.08262 10.0417 3.72229 9.89241 3.45661 9.62673C3.19093 9.36106 3.04168 9.00072 3.04168 8.625C3.04147 8.38466 3.10241 8.14821 3.21876 7.93792L3.72876 6.89667L1.15751 0.833333H0.208344V0.125H1.62501L2.22709 1.54167H12.25C12.6257 1.54167 12.9861 1.69092 13.2517 1.9566C13.5174 2.22228 13.6667 2.58261 13.6667 2.95833C13.6667 3.3125 13.5463 3.61 13.3479 3.85083L11.2867 6.60625C11.0317 6.9675 10.6067 7.20833 10.125 7.20833Z" fill="white"/>
</svg>
