<svg width="18" height="18" viewBox="0 0 18 18" fill="none" xmlns="http://www.w3.org/2000/svg">
<g opacity="0.5" clip-path="url(#clip0_1_50)">
<path d="M0.900002 4H3.6" stroke="black" stroke-linecap="round" stroke-linejoin="round"/>
<path d="M0.900002 14H6.3" stroke="black" stroke-linecap="round" stroke-linejoin="round"/>
<path d="M14.4 14H17.1" stroke="black" stroke-linecap="round" stroke-linejoin="round"/>
<path d="M11.7 4H17.1" stroke="black" stroke-linecap="round" stroke-linejoin="round"/>
<path d="M3.6 4C3.6 3.06812 3.6 2.60218 3.73701 2.23463C3.91971 1.74458 4.27012 1.35523 4.71117 1.15224C5.04196 1 5.46131 1 6.3 1C7.13869 1 7.55802 1 7.88886 1.15224C8.32986 1.35523 8.68032 1.74458 8.86302 2.23463C9 2.60218 9 3.06812 9 4C9 4.93188 9 5.39782 8.86302 5.76537C8.68032 6.25542 8.32986 6.64477 7.88886 6.84776C7.55802 7 7.13869 7 6.3 7C5.46131 7 5.04196 7 4.71117 6.84776C4.27012 6.64477 3.91971 6.25542 3.73701 5.76537C3.6 5.39782 3.6 4.93188 3.6 4Z" stroke="black"/>
<path d="M9 14C9 13.0681 9 12.6022 9.13698 12.2346C9.31968 11.7446 9.67014 11.3552 10.1111 11.1522C10.442 11 10.8613 11 11.7 11C12.5387 11 12.958 11 13.2889 11.1522C13.7299 11.3552 14.0803 11.7446 14.263 12.2346C14.4 12.6022 14.4 13.0681 14.4 14C14.4 14.9319 14.4 15.3978 14.263 15.7654C14.0803 16.2554 13.7299 16.6448 13.2889 16.8478C12.958 17 12.5387 17 11.7 17C10.8613 17 10.442 17 10.1111 16.8478C9.67014 16.6448 9.31968 16.2554 9.13698 15.7654C9 15.3978 9 14.9319 9 14Z" stroke="black"/>
</g>
<defs>
<clipPath id="clip0_1_50">
<rect width="18" height="18" fill="white"/>
</clipPath>
</defs>
</svg>
