<svg width="35" height="35" viewBox="0 0 35 35" fill="none" xmlns="http://www.w3.org/2000/svg">
<circle cx="17.5" cy="17.5" r="17.5" fill="#D9D9D9"/>
<path d="M17.5 22C18.6935 22 19.8381 21.5259 20.682 20.682C21.5259 19.8381 22 18.6935 22 17.5C22 16.3065 21.5259 15.1619 20.682 14.318C19.8381 13.4741 18.6935 13 17.5 13C16.3065 13 15.1619 13.4741 14.318 14.318C13.4741 15.1619 13 16.3065 13 17.5C13 18.6935 13.4741 19.8381 14.318 20.682C15.1619 21.5259 16.3065 22 17.5 22Z" stroke="white" stroke-width="1.5" stroke-linecap="round" stroke-linejoin="round"/>
<path d="M7.375 22V13C7.375 11.5082 7.96763 10.0774 9.02252 9.02252C10.0774 7.96763 11.5082 7.375 13 7.375H22C23.4918 7.375 24.9226 7.96763 25.9775 9.02252C27.0324 10.0774 27.625 11.5082 27.625 13V22C27.625 23.4918 27.0324 24.9226 25.9775 25.9775C24.9226 27.0324 23.4918 27.625 22 27.625H13C11.5082 27.625 10.0774 27.0324 9.02252 25.9775C7.96763 24.9226 7.375 23.4918 7.375 22Z" stroke="white" stroke-width="1.5"/>
<path d="M23.6875 11.3223L23.6975 11.3113" stroke="white" stroke-width="1.5" stroke-linecap="round" stroke-linejoin="round"/>
</svg>
