<svg width="35" height="35" viewBox="0 0 35 35" fill="none" xmlns="http://www.w3.org/2000/svg">
<circle cx="17.5" cy="17.5" r="17.5" fill="#D9D9D9"/>
<path d="M25.6098 9.18563C24.6061 8.17205 23.4106 7.36839 22.0931 6.82148C20.7757 6.27456 19.3625 5.99533 17.936 6.00006C11.959 6.00006 7.08758 10.8715 7.08758 16.8485C7.08758 18.7642 7.59114 20.6252 8.53258 22.2673L7 27.894L12.7472 26.3833C14.3345 27.2481 16.1188 27.7079 17.936 27.7079C23.9131 27.7079 28.7845 22.8365 28.7845 16.8595C28.7845 13.9585 27.6569 11.2327 25.6098 9.18563ZM17.936 25.8688C16.3159 25.8688 14.7286 25.4309 13.3383 24.6099L13.0099 24.4129L9.59443 25.3105L10.503 21.9826L10.2841 21.6433C9.38375 20.206 8.90579 18.5445 8.90477 16.8485C8.90477 11.8786 12.9552 7.8282 17.9251 7.8282C20.3334 7.8282 22.5994 8.76964 24.2962 10.4774C25.1365 11.3136 25.8024 12.3083 26.2553 13.4039C26.7082 14.4994 26.939 15.674 26.9344 16.8595C26.9563 21.8294 22.9059 25.8688 17.936 25.8688ZM22.8841 19.1255C22.6104 18.9941 21.2748 18.3373 21.034 18.2388C20.7822 18.1512 20.6071 18.1074 20.421 18.3701C20.2349 18.6438 19.7204 19.2568 19.5671 19.432C19.4139 19.6181 19.2497 19.64 18.976 19.4977C18.7023 19.3663 17.8266 19.0707 16.7975 18.1512C15.9875 17.4287 15.4511 16.542 15.2869 16.2683C15.1336 15.9946 15.265 15.8523 15.4073 15.71C15.5277 15.5896 15.6809 15.3926 15.8123 15.2393C15.9437 15.086 15.9984 14.9656 16.086 14.7905C16.1736 14.6044 16.1298 14.4511 16.0641 14.3198C15.9984 14.1884 15.4511 12.8529 15.2321 12.3055C15.0132 11.7801 14.7833 11.8457 14.6191 11.8348H14.0936C13.9075 11.8348 13.6229 11.9005 13.3711 12.1741C13.1303 12.4478 12.4297 13.1046 12.4297 14.4402C12.4297 15.7757 13.404 17.0674 13.5353 17.2426C13.6667 17.4287 15.4511 20.1654 18.1659 21.3368C18.8118 21.6214 19.3153 21.7856 19.7094 21.906C20.3553 22.114 20.9464 22.0812 21.4172 22.0155C21.9426 21.9388 23.0264 21.3587 23.2453 20.7237C23.4752 20.0888 23.4752 19.5524 23.3986 19.432C23.3219 19.3116 23.1577 19.2568 22.8841 19.1255Z" fill="white"/>
</svg>
