<svg width="13" height="13" viewBox="0 0 13 13" fill="none" xmlns="http://www.w3.org/2000/svg">
<path d="M1.4502 0.5H2.70215C3.15528 0.500078 3.53767 0.815654 3.63086 1.25098L3.64551 1.33984L3.85547 3.16211C3.88446 3.41598 3.81184 3.66434 3.65723 3.8584L3.58594 3.9375L2.24707 5.27637L1.99121 5.5332L2.1543 5.85645C3.24468 8.00693 5.00105 9.75493 7.14258 10.8447L7.4668 11.0098L7.72363 10.7529L9.05469 9.4209C9.23235 9.24331 9.47136 9.14505 9.72266 9.14551L9.83105 9.15234L11.6699 9.3623V9.36133C12.1216 9.4162 12.4604 9.77472 12.4971 10.2061L12.5 10.293V11.5498C12.5 12.0639 12.0995 12.4757 11.6279 12.499L11.5332 12.498C5.79688 12.1416 1.16717 7.68717 0.548828 2.01953L0.501953 1.4668C0.470448 0.955358 0.902022 0.5 1.4502 0.5Z" fill="black" stroke="black"/>
</svg>
