<svg width="16" height="15" viewBox="0 0 16 15" fill="none" xmlns="http://www.w3.org/2000/svg">
<path d="M12.9938 2.47791C12.3443 1.82207 11.5707 1.30206 10.7182 0.948171C9.86575 0.594285 8.95136 0.413606 8.02834 0.416664C4.16084 0.416664 1.00875 3.56875 1.00875 7.43625C1.00875 8.67583 1.33459 9.88 1.94375 10.9425L0.952087 14.5833L4.67084 13.6058C5.69792 14.1654 6.8525 14.4629 8.02834 14.4629C11.8958 14.4629 15.0479 11.3108 15.0479 7.44333C15.0479 5.56625 14.3183 3.8025 12.9938 2.47791ZM8.02834 13.2729C6.98 13.2729 5.95292 12.9896 5.05334 12.4583L4.84084 12.3308L2.63084 12.9117L3.21875 10.7583L3.07709 10.5387C2.49452 9.60875 2.18524 8.53365 2.18459 7.43625C2.18459 4.22041 4.80542 1.59958 8.02125 1.59958C9.57959 1.59958 11.0458 2.20875 12.1438 3.31375C12.6875 3.85482 13.1184 4.49847 13.4114 5.20736C13.7044 5.91624 13.8538 6.67627 13.8508 7.44333C13.865 10.6592 11.2442 13.2729 8.02834 13.2729ZM11.23 8.90958C11.0529 8.82458 10.1888 8.39958 10.0329 8.33583C9.87 8.27916 9.75667 8.25083 9.63625 8.42083C9.51584 8.59791 9.18292 8.99458 9.08375 9.10791C8.98459 9.22833 8.87834 9.2425 8.70125 9.15041C8.52417 9.06541 7.9575 8.87416 7.29167 8.27916C6.7675 7.81166 6.42042 7.23791 6.31417 7.06083C6.215 6.88375 6.3 6.79166 6.39209 6.69958C6.47 6.62166 6.56917 6.49416 6.65417 6.395C6.73917 6.29583 6.77459 6.21791 6.83125 6.10458C6.88792 5.98416 6.85959 5.885 6.81709 5.8C6.77459 5.715 6.42042 4.85083 6.27875 4.49666C6.13709 4.15666 5.98834 4.19916 5.88209 4.19208H5.54209C5.42167 4.19208 5.2375 4.23458 5.07459 4.41166C4.91875 4.58875 4.46542 5.01375 4.46542 5.87791C4.46542 6.74208 5.09584 7.57791 5.18084 7.69125C5.26584 7.81166 6.42042 9.5825 8.17709 10.3404C8.595 10.5246 8.92084 10.6308 9.17584 10.7087C9.59375 10.8433 9.97625 10.8221 10.2808 10.7796C10.6208 10.73 11.3221 10.3546 11.4638 9.94375C11.6125 9.53291 11.6125 9.18583 11.5629 9.10791C11.5133 9.03 11.4071 8.99458 11.23 8.90958Z" fill="white"/>
</svg>
