<svg width="20" height="20" viewBox="0 0 20 20" fill="none" xmlns="http://www.w3.org/2000/svg">
<path d="M15.3333 15.25C15.8416 15.25 16.3292 15.4519 16.6886 15.8114C17.048 16.1708 17.25 16.6583 17.25 17.1667C17.25 17.675 17.048 18.1625 16.6886 18.522C16.3292 18.8814 15.8416 19.0833 15.3333 19.0833C14.825 19.0833 14.3375 18.8814 13.978 18.522C13.6186 18.1625 13.4166 17.675 13.4166 17.1667C13.4166 16.6583 13.6186 16.1708 13.978 15.8114C14.3375 15.4519 14.825 15.25 15.3333 15.25ZM15.3333 16.2083C15.0791 16.2083 14.8354 16.3093 14.6557 16.489C14.4759 16.6687 14.375 16.9125 14.375 17.1667C14.375 17.4208 14.4759 17.6646 14.6557 17.8443C14.8354 18.024 15.0791 18.125 15.3333 18.125C15.5875 18.125 15.8312 18.024 16.011 17.8443C16.1907 17.6646 16.2916 17.4208 16.2916 17.1667C16.2916 16.9125 16.1907 16.6687 16.011 16.489C15.8312 16.3093 15.5875 16.2083 15.3333 16.2083ZM6.70831 15.25C7.21664 15.25 7.70416 15.4519 8.0636 15.8114C8.42305 16.1708 8.62498 16.6583 8.62498 17.1667C8.62498 17.675 8.42305 18.1625 8.0636 18.522C7.70416 18.8814 7.21664 19.0833 6.70831 19.0833C6.19998 19.0833 5.71247 18.8814 5.35302 18.522C4.99358 18.1625 4.79165 17.675 4.79165 17.1667C4.79165 16.6583 4.99358 16.1708 5.35302 15.8114C5.71247 15.4519 6.19998 15.25 6.70831 15.25ZM6.70831 16.2083C6.45415 16.2083 6.21039 16.3093 6.03067 16.489C5.85095 16.6687 5.74998 16.9125 5.74998 17.1667C5.74998 17.4208 5.85095 17.6646 6.03067 17.8443C6.21039 18.024 6.45415 18.125 6.70831 18.125C6.96248 18.125 7.20623 18.024 7.38596 17.8443C7.56568 17.6646 7.66665 17.4208 7.66665 17.1667C7.66665 16.9125 7.56568 16.6687 7.38596 16.489C7.20623 16.3093 6.96248 16.2083 6.70831 16.2083ZM17.25 3.75H4.09206L6.53581 9.5H14.375C14.6912 9.5 14.9691 9.34667 15.1416 9.11667L18.0166 5.28333C18.1412 5.12042 18.2083 4.91917 18.2083 4.70833C18.2083 4.45417 18.1073 4.21041 17.9276 4.03069C17.7479 3.85097 17.5041 3.75 17.25 3.75ZM14.375 10.4583H6.58373L5.84581 11.9533L5.74998 12.375C5.74998 12.6292 5.85095 12.8729 6.03067 13.0526C6.21039 13.2324 6.45415 13.3333 6.70831 13.3333H17.25V14.2917H6.70831C6.19998 14.2917 5.71247 14.0897 5.35302 13.7303C4.99358 13.3708 4.79165 12.8833 4.79165 12.375C4.79136 12.0498 4.87381 11.7299 5.03123 11.4454L5.72123 10.0367L2.24248 1.83333H0.958313V0.875H2.87498L3.68956 2.79167H17.25C17.7583 2.79167 18.2458 2.9936 18.6053 3.35305C18.9647 3.71249 19.1666 4.2 19.1666 4.70833C19.1666 5.1875 19.0037 5.59 18.7354 5.91583L15.9466 9.64375C15.6016 10.1325 15.0266 10.4583 14.375 10.4583Z" fill="white"/>
</svg>
